# xmcd
# 
# Track frame offsets:
#     150
#     13297
#     25752
#     39092
#     49927
#     65482
#     80837
#     99030
#     110805
#     125730
#     137757
#     147815
#     159637
#     173612
# 
# Disc length: 2472
# 
# Revision: 0
# Processed by: cddbd v1.5.2PL0 Copyright (c) Steve Scherf et al.
# Submitted via: BonkEnc v1.0
# 
DISCID=bc09a60e
DTITLE=Kenny Rogers and the First Edition - Kenny Rogers and the First Edition
DYEAR=1997
DGENRE=Country
TTITLE0=Ruby
TTITLE1=Rueben James
TTITLE2=Shine on Ruby Mountain
TTITLE3=She even woke me up to say goodbye
TTITLE4=My Washington Woman
TTITLE5=For the good times
TTITLE6=Somethings Burning
TTITLE7=Elvira
TTITLE8=Heed the Call
TTITLE9=Me and Bobbie McGee
TTITLE10=Where Does Rosie Go
TTITLE11=Calico Silver
TTITLE12=Sunshine
TTITLE13=Poem For My Little Lady
EXTD=No idea where I got this album but seems nobody else does
EXTT0=
EXTT1=
EXTT2=
EXTT3=
EXTT4=
EXTT5=
EXTT6=
EXTT7=
EXTT8=
EXTT9=
EXTT10=
EXTT11=
EXTT12=
EXTT13=
PLAYORDER=
